<svg xmlns="http://www.w3.org/2000/svg" viewBox="0 0 64 64">
  <defs>
    <linearGradient id="panel" x1="6" x2="58" y1="6" y2="58" gradientUnits="userSpaceOnUse">
      <stop stop-color="#1A202B" />
      <stop offset="1" stop-color="#0D1015" />
    </linearGradient>
    <radialGradient id="halo" cx="0" cy="0" r="1" gradientUnits="userSpaceOnUse" gradientTransform="translate(32 32) rotate(90) scale(20 22)">
      <stop stop-color="#DCE5FF" stop-opacity="0.34" />
      <stop offset="1" stop-color="#DCE5FF" stop-opacity="0" />
    </radialGradient>
    <linearGradient id="ribbon" x1="16" x2="48" y1="16" y2="48" gradientUnits="userSpaceOnUse">
      <stop stop-color="#FBFDFF" />
      <stop offset="0.55" stop-color="#A7B7FF" />
      <stop offset="1" stop-color="#78E7F2" />
    </linearGradient>
  </defs>
  <rect width="64" height="64" rx="18" fill="url(#panel)" />
  <rect x="1" y="1" width="62" height="62" rx="17" fill="none" opacity="0.08" stroke="#F8FBFF" />
  <ellipse cx="32" cy="32" rx="22" ry="20" fill="url(#halo)" />
  <path
    d="M46.4 20.4c-3.2-3.7-8.5-6-14.5-6-9.4 0-15.7 4.4-15.7 11 0 5.6 4 8.8 12.4 10.1l4.2.7c4.8.8 6.9 2.3 6.9 5 0 3.8-3.8 6.2-10.1 6.2-4.9 0-9.7-1.7-13.3-4.8"
    fill="none"
    stroke="url(#ribbon)"
    stroke-linecap="round"
    stroke-linejoin="round"
    stroke-width="6.5"
  />
  <path
    d="M44.1 21.9c-2.7-2.2-7-3.6-11.7-3.6-6.5 0-10.8 2.4-10.8 6.5 0 3.4 2.8 5.2 9.1 6.1"
    fill="none"
    opacity="0.72"
    stroke="#F8FBFF"
    stroke-linecap="round"
    stroke-width="2"
  />
</svg>
